<mxfile host="app.diagrams.net" modified="2024-03-20T13:41:20.321Z" agent="Mozilla/5.0 (X11; Linux x86_64) AppleWebKit/537.36 (KHTML, like Gecko) Chrome/122.0.0.0 Safari/537.36" etag="EgAwlDLqNxp7xuBJoHwO" version="24.0.7" type="device">
  <diagram name="Page-1" id="Y2osiApdSlaNRCLp-y08">
    <mxGraphModel dx="2607" dy="1402" grid="1" gridSize="10" guides="1" tooltips="1" connect="1" arrows="1" fold="1" page="1" pageScale="1" pageWidth="850" pageHeight="1100" math="0" shadow="0">
      <root>
        <mxCell id="0" />
        <mxCell id="1" parent="0" />
        <mxCell id="9CfiIMtapyMQhVFrwfho-7" value="" style="shape=image;verticalLabelPosition=bottom;labelBackgroundColor=default;verticalAlign=top;aspect=fixed;imageAspect=0;image=data:image/jpeg,/9j/4AAQSkZJRgABAQEBLAEsAAD/4QBWRXhpZgAATU0AKgAAAAgABAEaAAUAAAABAAAAPgEbAAUAAAABAAAARgEoAAMAAAABAAIAAAITAAMAAAABAAEAAAAAAAAAAAEsAAAAAQAAASwAAAAB/+0ALFBob3Rvc2hvcCAzLjAAOEJJTQQEAAAAAAAPHAFaAAMbJUccAQAAAgAEAP/hDIFodHRwOi8vbnMuYWRvYmUuY29tL3hhcC8xLjAvADw/eHBhY2tldCBiZWdpbj0n77u/JyBpZD0nVzVNME1wQ2VoaUh6cmVTek5UY3prYzlkJz8+Cjx4OnhtcG1ldGEgeG1sbnM6eD0nYWRvYmU6bnM6bWV0YS8nIHg6eG1wdGs9J0ltYWdlOjpFeGlmVG9vbCAxMC4xMCc+CjxyZGY6UkRGIHhtbG5zOnJkZj0naHR0cDovL3d3dy53My5vcmcvMTk5OS8wMi8yMi1yZGYtc3ludGF4LW5zIyc+CgogPHJkZjpEZXNjcmlwdGlvbiByZGY6YWJvdXQ9JycKICB4bWxuczp0aWZmPSdodHRwOi8vbnMuYWRvYmUuY29tL3RpZmYvMS4wLyc+CiAgPHRpZmY6UmVzb2x1dGlvblVuaXQ+MjwvdGlmZjpSZXNvbHV0aW9uVW5pdD4KICA8dGlmZjpYUmVzb2x1dGlvbj4zMDAvMTwvdGlmZjpYUmVzb2x1dGlvbj4KICA8dGlmZjpZUmVzb2x1dGlvbj4zMDAvMTwvdGlmZjpZUmVzb2x1dGlvbj4KIDwvcmRmOkRlc2NyaXB0aW9uPgoKIDxyZGY6RGVzY3JpcHRpb24gcmRmOmFib3V0PScnCiAgeG1sbnM6eG1wTU09J2h0dHA6Ly9ucy5hZG9iZS5jb20veGFwLzEuMC9tbS8nPgogIDx4bXBNTTpEb2N1bWVudElEPmFkb2JlOmRvY2lkOnN0b2NrOjBjMWI0NjJhLTljYzYtNGUzNy04NGRhLWY3MTQ5MTVkYjJhZTwveG1wTU06RG9jdW1lbnRJRD4KICA8eG1wTU06SW5zdGFuY2VJRD54bXAuaWlkOjJmNzBjN2Y5LWNjMGItNGUxOC05MjE5LTM0NzNjMDkwMjEyYTwveG1wTU06SW5zdGFuY2VJRD4KIDwvcmRmOkRlc2NyaXB0aW9uPgo8L3JkZjpSREY+CjwveDp4bXBtZXRhPgogICAgICAgICAgICAgICAgICAgICAgICAgICAgICAgICAgICAgICAgICAgICAgICAgICAgICAgICAgICAgICAgICAgICAgICAgICAgICAgICAgICAgICAgICAgICAgICAgICAgCiAgICAgICAgICAgICAgICAgICAgICAgICAgICAgICAgICAgICAgICAgICAgICAgICAgICAgICAgICAgICAgICAgICAgICAgICAgICAgICAgICAgICAgICAgICAgICAgICAgICAKICAgICAgICAgICAgICAgICAgICAgICAgICAgICAgICAgICAgICAgICAgICAgICAgICAgICAgICAgICAgICAgICAgICAgICAgICAgICAgICAgICAgICAgICAgICAgICAgICAgIAogICAgICAgICAgICAgICAgICAgICAgICAgICAgICAgICAgICAgICAgICAgICAgICAgICAgICAgICAgICAgICAgICAgICAgICAgICAgICAgICAgICAgICAgICAgICAgICAgICAgCiAgICAgICAgICAgICAgICAgICAgICAgICAgICAgICAgICAgICAgICAgICAgICAgICAgICAgICAgICAgICAgICAgICAgICAgICAgICAgICAgICAgICAgICAgICAgICAgICAgICAKICAgICAgICAgICAgICAgICAgICAgICAgICAgICAgICAgICAgICAgICAgICAgICAgICAgICAgICAgICAgICAgICAgICAgICAgICAgICAgICAgICAgICAgICAgICAgICAgICAgIAogICAgICAgICAgICAgICAgICAgICAgICAgICAgICAgICAgICAgICAgICAgICAgICAgICAgICAgICAgICAgICAgICAgICAgICAgICAgICAgICAgICAgICAgICAgICAgICAgICAgCiAgICAgICAgICAgICAgICAgICAgICAgICAgICAgICAgICAgICAgICAgICAgICAgICAgICAgICAgICAgICAgICAgICAgICAgICAgICAgICAgICAgICAgICAgICAgICAgICAgICAKICAgICAgICAgICAgICAgICAgICAgICAgICAgICAgICAgICAgICAgICAgICAgICAgICAgICAgICAgICAgICAgICAgICAgICAgICAgICAgICAgICAgICAgICAgICAgICAgICAgIAogICAgICAgICAgICAgICAgICAgICAgICAgICAgICAgICAgICAgICAgICAgICAgICAgICAgICAgICAgICAgICAgICAgICAgICAgICAgICAgICAgICAgICAgICAgICAgICAgICAgCiAgICAgICAgICAgICAgICAgICAgICAgICAgICAgICAgICAgICAgICAgICAgICAgICAgICAgICAgICAgICAgICAgICAgICAgICAgICAgICAgICAgICAgICAgICAgICAgICAgICAKICAgICAgICAgICAgICAgICAgICAgICAgICAgICAgICAgICAgICAgICAgICAgICAgICAgICAgICAgICAgICAgICAgICAgICAgICAgICAgICAgICAgICAgICAgICAgICAgICAgIAogICAgICAgICAgICAgICAgICAgICAgICAgICAgICAgICAgICAgICAgICAgICAgICAgICAgICAgICAgICAgICAgICAgICAgICAgICAgICAgICAgICAgICAgICAgICAgICAgICAgCiAgICAgICAgICAgICAgICAgICAgICAgICAgICAgICAgICAgICAgICAgICAgICAgICAgICAgICAgICAgICAgICAgICAgICAgICAgICAgICAgICAgICAgICAgICAgICAgICAgICAKICAgICAgICAgICAgICAgICAgICAgICAgICAgICAgICAgICAgICAgICAgICAgICAgICAgICAgICAgICAgICAgICAgICAgICAgICAgICAgICAgICAgICAgICAgICAgICAgICAgIAogICAgICAgICAgICAgICAgICAgICAgICAgICAgICAgICAgICAgICAgICAgICAgICAgICAgICAgICAgICAgICAgICAgICAgICAgICAgICAgICAgICAgICAgICAgICAgICAgICAgCiAgICAgICAgICAgICAgICAgICAgICAgICAgICAgICAgICAgICAgICAgICAgICAgICAgICAgICAgICAgICAgICAgICAgICAgICAgICAgICAgICAgICAgICAgICAgICAgICAgICAKICAgICAgICAgICAgICAgICAgICAgICAgICAgICAgICAgICAgICAgICAgICAgICAgICAgICAgICAgICAgICAgICAgICAgICAgICAgICAgICAgICAgICAgICAgICAgICAgICAgIAogICAgICAgICAgICAgICAgICAgICAgICAgICAgICAgICAgICAgICAgICAgICAgICAgICAgICAgICAgICAgICAgICAgICAgICAgICAgICAgICAgICAgICAgICAgICAgICAgICAgCiAgICAgICAgICAgICAgICAgICAgICAgICAgICAgICAgICAgICAgICAgICAgICAgICAgICAgICAgICAgICAgICAgICAgICAgICAgICAgICAgICAgICAgICAgICAgICAgICAgICAKICAgICAgICAgICAgICAgICAgICAgICAgICAgICAgICAgICAgICAgICAgICAgICAgICAgICAgICAgICAgICAgICAgICAgICAgICAgICAgICAgICAgICAgICAgICAgICAgICAgIAogICAgICAgICAgICAgICAgICAgICAgICAgICAgICAgICAgICAgICAgICAgICAgICAgICAgICAgICAgICAgICAgICAgICAgICAgICAgICAgICAgICAgICAgICAgICAgICAgICAgCiAgICAgICAgICAgICAgICAgICAgICAgICAgICAgICAgICAgICAgICAgICAgICAgICAgICAgICAgICAgICAgICAgICAgICAgICAgICAgICAgICAgICAgICAgICAgICAgICAgICAKICAgICAgICAgICAgICAgICAgICAgICAgICAgICAgICAgICAgICAgICAgICAgICAgICAgICAgICAgICAgICAgICAgICAgICAgICAgICAgICAgICAgICAgICAgICAgICAgICAgIAo8P3hwYWNrZXQgZW5kPSd3Jz8+/9sAQwAFAwQEBAMFBAQEBQUFBgcMCAcHBwcPCwsJDBEPEhIRDxERExYcFxMUGhURERghGBodHR8fHxMXIiQiHiQcHh8e/9sAQwEFBQUHBgcOCAgOHhQRFB4eHh4eHh4eHh4eHh4eHh4eHh4eHh4eHh4eHh4eHh4eHh4eHh4eHh4eHh4eHh4eHh4e/8AAEQgBaAFoAwERAAIRAQMRAf/EAB0AAQACAgMBAQAAAAAAAAAAAAAFBgQJAgMIBwH/xABPEAABAwICAwgOBwYFAgcAAAAAAQIDBAUGEQcSITE0QVFxcoGxCBMUMjM1N2F0dZGhs8EiI0JigpKyFSRDUnOiFhfC0dIlRiZERVRjk9P/xAAbAQEAAgMBAQAAAAAAAAAAAAAAAgQBAwYFB//EACURAQABAwMDBQEBAAAAAAAAAAABAgMEERIhBTFRBhNBYZEU8f/aAAwDAQACEQMRAD8A9lgAAAAAAAAAAAAAAAAAAAAAAGYABny+wAAzAAAAAAAAAAAAAAAAAAAAAAAAAAAAAAAAAAAAAAAAAAAAcZZI4mK+R7WNTdVy5IBF1N/oIl1WOdMv3E2e1QPPF902acLpday3YR0RNo208z4Fqa97pGqrXKmsjlWNipszRUVUAhahvZW35P3rFllsMbvsU7oWq38kb1/uAwpdFmnO4JnctNlYme62OrqlT2NVqAdH+R+k7vv86Llrf1qv/wDUDvi0Wacremdt02Vi5bjZKuqy/uVyAZtOzsrbCn7riyy36Nv2Kh0Lld+eNi/3ATVj02acbVdKO3Yu0RNrG1EzIEqaB7o25uciayuRZGIm3PNVRAPQ9Nf6CVdWRzoXffTZ7UAlIpI5WI+J7XtXhauaAcgAAAAAAAAAAAAAAAAAAAAAAAAAAAAAAAAAAAABVREzVckAxZangjTpUlEIzKJv/wBZbZHPXNWqioq8eYmOCO6skUhdu7tAAAAAAATZubAAFmsCdrtsbmLkrlVVVOPMlHZGe6WiqeCT2oNCJZSKipmi5oRSAAAAAAAAAAAAAAAAAAAAAAAAAAAAAAAAAAAYFbUt+05GsT3ko4RnlB3C7vY9Y6diJluudt9w1NETPUTzrnNK5/Kuz2EUnUAAAAAAAAAAdkFRNA7OGVzORdi9ANEtb7u970jqGIue45uz3EtUdE7RVLV71yOYu75hPJHDPIpAAAAAAAAAAAAAAAAAAAAAAAAAAAAAAAAA66p+pTSvTdaxV9wFWc5z3az3K5eNQIiZ2vK93GoHEAAAAAAAAAAAAOUTtSVruJQJdrnMdmxytXjQC00r1kponruuYir7AOwAAAAAAAAAAAAAAAAAAAAAAAAAAAAAAAAY9zXK3zr9xQKvIuqxy8SKBEgAAAAAAAAAAAAAAS0a60bV40QCz2tc7fAv3QMkAAAAAAAAAAAAAAAAAAAAAAAAAAAAAAAAYt38XTcidaAVeo8BJzVAiwAAAAAAAAAAAAAAJSm3vHzUAs9o8XQ8i9agZYAAAAAAAAAAAAAAAAAAAAAAAAAAAAAAAAw7yv8A06Xo60ArNRveTmqBFgAAAAAAAAAAAAAASlNvePmgWayrnbo+nrUDMAAAAAAAAAAAAAAAAAAAAAAAAAAAAAAAAGFe/Fz+VOsCtVHgJOaoEWAAAAAAAAAAAAAABKU+94+agFksfi9nKvWBnAAAAAAAAAAAAAAAAAAAAAAAAAAAAAAAADBvvi9ecgFcn8C/mqBFAAAAAAAAAAAAAAASsHgGc1ALFYt4JzlAzwAAAAAAAAAAAAAAAAAAAAAAAAAAAAAAABH37eH40Ar03gX81QIoAAAAAAAAAAAAAACVg8CzmoBYbBvD8agSAAAAAAAAAAAAAAAAAAAAAAAAAAAAAAAAAj7/ALxT+onzAr8vgn81QIkAAAAAAAAAAAAAACVh8EzmoBYMP7yd/UXqQCRAAAAAAAAAAAAAAAAAAAAAAAAAAAAAAAAGBfkzoM+J6AV6TwbuaoESAAx7jXUVupXVdxrKejp27VlqJWxsTpcqIB86xDp30X2Zzo1xF+0pW/Yt0D59vO2N94FKuXZQ2RFVLRg69VnE6eaOFF6ERygQlR2TeJHqvcmAaNicHbq2Ry+5qAdMfZIY7kVdTBFncibqJNL/AMgMuDsk8Vxqndmjule3h7TWSNX3tUCYt/ZPWhFRLzgq90XG6GVkqJ0ORqgXPD2njRfeXNj/AMRfs2V32LjTug287a33gfRbdXUVypW1durKatp3bUlp5WyMXpaqoBkAAJaPwbOagFgsCZUOfG9QJAAAAAAAAAAAAAAAAAAAAAAAAAAAAAAAAAYd5TO3SebJfeBW3947kUCi47xxhjBFtStxHdIqVHovaYG/TnmVOBkabV5diJwqB58xr2QeLry59PhC3RYfol2JV1SJNVOTjRveM9i8oHyW793XysWtxDdrheKlVzV9VO5+XIirs6APyKmp4vBwRt5GgdoADOtP8To+YGeAzXjAx6iho6hF7fSwyZ8KsTP2gdFtoamy1iVuG7vcbLVIuaPpJ3NReVM9vSB9Pwhp3xpYXMgxdbocSUKbHVdIiRVTE41b3r/YnKB98wHjnC+N7ctbhy6R1WoidugcmpPAvE+Ndqcu1F4FAvTO8byIBZLK3K3R+fNfeBmAAAAAAAAAAAAAAAAAAAAAAAAAAAAAAAADHuaa1vmT7iqBWHd6vIB5T7LuxshxXh/EiRNVKukkoZH5bj43dsZ7Wvd+UD4uAAAAAGdaf4nR8wM8AAAAAPqnYsWSKfG1+xF2lre4qKOia9G5a0krtd3sYxv5gPUbe8byIBZrWmrb4U+7mBkgAAAAAAAAAAAAAAAAAAAAAAAAAAAAAABVRNqgR9wuVAyCSJ9VGrlaqZNXWXPLzAfE9MmmaxaNJaGmuFpudwnronyxJTqxrGta5GrrOcvn4EUCC7JS2x33Q1UXWlylW3PgukLk4Y02Py5Y5FXoA8q8gAAAAAZ1p/idHzAzwAAAA2cK5IB6P7G6gjtGiKK8VWUS3SWe6SuXgi3GZ8kcaL0gTWhvTPYdJc1dS2603K3z0MLJZO6FY9jmucrU1XNXPPZuKiAfbLdcqB8EUTaqNHI1EycuqueXnAkUVFTNAAAAAAAAAAAAAAAAAAAAAAAAAAAAAAACExg56W+NGqqNWTJ2XDsUCqsa5y6rGq5eJEzArWkHRxhLGttdUYps/dc9FTy9yypPJE+NFbrKiaqpsVUTdRdwCraB62HGugO00la5JNegktNVnt71Fi2/gVqgeTW089E+W31SKlTRSvpZkXd143KxeoDkAAAAM60/xOj5gZ4AAAAx6+OeogSipEVamskZSwIm7ryORidYHpzTnWQ4I0A3akondr7Vb47TSZbNrkSLZ+FHKBZtHWjjCWC7YypwvZ+5Kitpoe6pVnklfImqjkRdZV2Zqq7EQCzva5q6r2q1eJUyAtWD3SLQSo5yq1JMm58GxAJsAAAAAAAAAAAAAAAAAAAAAAAAAAAAAB1VVNBVR9rqI0kZmi5LxgIoIII1SGJkaZfZaiAU26+Kq30aX9CgeXuwevnbLTiHDUj9sMkVdC3P7L29rfl0tZ7QKZ2QFn/YmmS9MazVhubIrlFxZvTVk/vYvtAo4DJeJQPxzmt75zW8q5AdLqyjb31XTt5ZW/7gZVsudtZ2zXuFI3PLLOZv+4Egy429/eV9I7kmb/uBkMkjf3kjHc1yKByyXiUABadC9q/bemKwU7m60NtSW6TcX1aasef43p7ALN2cV87XZMP4ajftnklrpm5/ZY3UZ73P9gHp6zeJ6H0WL4bQLpJBDPGiTRMkTL7TUUBS00FLGscEaRsVc8k4wO0AAAAAAAAAAAAAAAAAAAAAAAAAAAAAAA/JO8dyKBSbr4prfRpf0KB4Q7FK9/sbTHaYXv1YbpDJQP27FV7dZn97G+0D0lpo0UrpDudnuFPemWiegilhlkWm7cssb1a5ERNZERUVFXbxgVy3djbh5iItzxXiCsXhbCkVO1fY1y+8CwUOgPRjTZdus9bXKnDV3KZ+fQiogE7RaKNGlHl2jA1jzThkpu2L/eqgTNNhDCVMiJT4WsUSJ/LboU/0gZX7BsWWX7DtOXF3DF/xAxanCGEqlFSowtYpUX+a3Qr/AKQIat0UaNKzPt+BrFmvDHTdrX2sVAISt0DaNJ8+0WqvoF46S5zMy6FcqAQVf2O1ldmtrxfiKjXgbMkVS1Pa1q+8CwaHNFsmAbveLnV3xl4qK6GKCKRKXtKxRsVzlRU1lRVVVTc4gPNvZYXz9saYrrAx+tDa4I6BnEjmt1n/ANz19gHuuz+JqH0WL4bQLvH4NvIgHIAAAAAAAAAAAAAAAAAAAAAAAAAAAAAAAAcZfBP5qgUm6eKaz0aX9CgaybDcZrPdbfdqdVSahniqWKnGxyO+QGyKhq4a+hp6+mcjoKmJk0apwte1HJ7lA7gAAAAAAAAADpraqGho566pcjYKaJ00irwNaiuX3IoGt7ENymvN2uN3qFVZq6eWpeq8b3K75gbNLP4mofRYvhtAu8Pgmc1AOQAAAAAAAAAAAAAAAAAAAAAAAAAAAAAAAA4T+BfzV6gKVdPFNZ6NL+hQNXqeBTmfIDYnoz8nGGPVFJ8FoFhAAAAAAAAAAIDSP5PMS+qKv4LwNdK73XmfIDaFZ/E1D6LF8NoF2g8BHzU6gOYAAAAAAAAAAAAAAAAAAAAAAAAAAAAAAAA4VG95OavUBSrp4prPRpf0KBq9TwKcz5AbE9Gnk4wx6opPgtAsIAAAAAAAAABAaR/J5iX1RV/BeBrpXe68z5AbQrP4mofRYvhtAutNvePmJ1AdgAAAAAAAAAAAAAAAAAAAAAAAAAAAAAAAA66ne0vMXqApd08U1no0v6FA1ep4FOZ8gNiejTycYY9UUnwWgWEAAAAAAAAAAgNI/k8xL6oq/gvA10rvdeZ8gNoVn8TUPosXw2gXWl3tFzE6gOwAAAAAAAAAAAAAAAAAAAAAAAAAAAAAAAAddVvaXmL1AUy6+Ka30aX9CgavE8CnM+QGxPRp5OMMeqKT4LQLCAAAAAAAAAAQGkfyeYl9UVfwXga6V3uvM+QG0Kz+JqH0WL4bQLrS71i5idQHYAAAAAAAAAAAAAAAAAAAAAAAAAAAAAAAAOur3rLzF6gKZdfFNb6NL+hQNXieBTmfIDYno08nGGPVFJ8FoFhAAAAAAAAAAIDSP5PMS+qKv4LwNdK73XmfIDaFZ/E1D6LF8NoF0pN6w8xvUB2gAAAAAAAAAAAAAAAAAAAAAAAAAAAAAAADqq96zcx3UBTbr4prPRpf0KBq8TwKcz5AbE9Gnk4wx6opPgtAsIAAAAAAAAABAaR/J5iX1RV/BeBrpXe68z5AbQrP4mofRYvhtAulHvSHmN6gO0AAAAAAAAAAAAAAAAAAAAAAAAAAAAAAAAdVZvSbmO6gKbdfFNb6NL+hQNeOjvRZjnHjY3YfsUzqNyIi11T9TTN2fzu77kaiqB7swnbZrLha02eokjkmoKKGmkfHnqucxiNVUz25ZpwgSYAAAAAAAAABG4pt0t4wxdbRTyRxzV1FNTRvkz1WuexWoq5bcs1A8JaRdFeOsCMkdf7FMlG1qoldTfXUztn87e95HIigbDLP4mofRYvhtAulHvSHmN6gO0AAAAAAAAAAAAAAAAAAAAAAAAAAAAAAAAdVZvSbmO6gKqqI5qtVEVFTJUVN0Ch6QtLeAMAxOp7veYX1kTcmW6hRJp0y3E1W7I05ytAmLFc471Y6C8wxPiir6aOqZG9UVzGvajkRctmaIoGaAAAAAAAAAAYd8uUdmstdd5onyx0NNJUvYxURzkY1XKiZ7M1RAIXR7pcwBj6JtPaLzFHWzMyfbq5EhnXPdbqu+jInNVwF9REa1GoiIiJkiImWQFqot5w8xOoDtAAAAAAAAAAAAAAAAAAAAAAAAAAAAAAAAHVWb0m5juoCm3RVS1ViouSpTS5L+BQNXmecSqu6rc1XjXLdA2J6NPJxhj1RSfBaBYQAAAAAAAAACA0j+TzEvqir+C8DXSq5QZpuo3NF4ly3QNoVoVVs9CqqqqtLEqqvMaBdKLecPMTqA7QAAAAAAAAAAAAAAAAAAAAAAAAAAAAAAAB1Vm9JuY7qApt18U1vo0v6FA1eJ4FOZ8gNiejTycYY9UUnwWgWEAAAAAAAAAAgNI/k8xL6oq/gvA10rvdeZ8gNoVn8TUPosXw2gXSi3nDzE6gO0AAAAAAAAAAAAAAAAAAAAAAAAAAAAAAAAdNauVHMv/xr1AU66+Kq30aX9CgavE8CnM+QGxPRp5OMMeqKT4LQLCAAAAAAAAAAQGkfyeYl9UVfwXga6V3uvM+QG0KzeJqH0WL4bQLnQrnRwr9xOoDuAAAAAAAAAAAAAAAAAAAAAAAAAAAAAAAAGNdFyt8y/dyAqN18VVvo0v6FA1fQxyTJHFExz5JERjGtTNXOXYiJ51UDY1hKkksmC7Pb7g+KKSgt0EM7leiNa5kbWu2rsyzRdoExH9YxHx/Tau45u1PagBdm7sAAAAAAATbubQD/AKtivk+g1N1ztie1QIjFVI+9YOu9Bb3xSyV1vnhgcj0VjnPjc1u1NmWa7oGuSojkhSSGZjo5Y0cx7HJkrXJsVF86KgGz+zeJ6H0WH4bQLhalzt8K/dyAyQAAAAAAAAAAAAAAAAAAAAAAAAAAAAAAABh3p2Vuk86onvAql18VVvo0v6FA8MdihhD/ABNpMprjUxa9BY421suabHS7kLfzZu/AB9o7LjE/cmF6DBtNJ+8XqTttXku1KWJUVUXnP1U/CoHnOhkqKB2tbq6uoF4O5auSLL8rkAn6PHWPaNESlx1iNiJuI+s7Yn96KBJwaWdJ8OWrjSqk/rUdO/8A0AZTNM+lFv8A3LSv59qgXqRAMuk0x6UJ9b/xDb26uX/pEQHa/SvpQd/3VTM5lpgTrRQMWbSTpMm77HFYz+jR07P9AEdV4sxvWIqVWO8SyIu6jK3tSf2IgEJWQLXO17jVV1wdwrV1ks2fQ5yoB957FHEXbbBccFVMn11ml7fRZrtWklVVRE5j9ZPxIB8V7LLCH+GtJVRc6aLUoL7G6sjyTY2bcmb+bJ34wPclm8T0PosPw2gWyyrnbo/Mqp7wM0AAAAAAAAAAAAAAAAAAAAAAAAAAAAAAAAR9/XKhRON6fMCsXXJLVWqq5J3NL+hQPjnYvYQ/wnopopqqNIq+7olfVK7YrGub9U1eRmS8rlA87aTMTLjPSFd8RMerqN0nctvReCmiVWtX8S6zvxAV8AAAAZ1p/idHzAzwAAABJ4JxEuDseWfE6uVKWGXuW4InDSyqjXKvNXVf0Afe+yewgmLdFFdLSxpLX2lFuFKrdqva1q9sanOZmvK1APr9myWzUCouadyw5f8A1tAtNgXOiVOJ6/ICQAAAAAAAAAAAAAAAAAAAAAAAAAAAAAAAAEXiJfqIm8b8/cBBTo1YJGvajmqxUci7ioqbUAomk23X65aPLxasKup4rpU0i09Ossna2ta7JrkR2WxdTWRODNU3APFV4oK/DNa20X+11dlqo0RrYqqPVRyJwsd3rk86KBwaqOTNqo5ONFzA/QAADOtP8To+YGeAAAfj3NY3We5GtThcuSAdNvjnxJVPs1gtdXfaqVqsdDSR6zWouz6b+9annVQPYGi+3X62aO7NacVOp5bpS0iU86xSdsarW5oxFdltdqaqLlszRd0C+U6NbBG1jUa1GIjUTcRETYgE7h1fqJW8T0X3ASgAAAAAAAAAAAAAAAAAAAAAAAAAAAAAAAAiMRrsgTzu+QEHVLlTScgEYBh3m1Wy80DqC726kuFI/voamFsjPYqbOVAPk2J+xywJcXvnss1yw7O7aiUk3bIc/wCm/PLocgHz689jljmjVVsuJ7PdI03G1Ub6d6+5ye8Cq1+iPS7QquthGOtRPtUlXE/Po1s/cBD1GC9JNOqpPo8v6ZfyUznJ7kUD8pLHjuBXJ/l7iRyuy/8AJSf8QM+DDmkmpVEp9G9/XP8Angc1PeiAStFoz0w16okeDoaFF+1WVcbMujXz9wFmtHY/aQa1UW84ps9qjXdbSRunenTk1PeBe8N9jpgegkbPfam6YknTaqVk3a4c+YzLPpcoH1ezWq12WgbQWe3UlvpG7kNNC2NnsTdXzqBmgSdIudMzkAnMOLsnTm/MCXAAAAAAAAAAAAAAAAAAAAAAAAAAAAAAAAERiPcg/F8gIGu3s7o6wI4AAAAACbNwBmvGvtALt3QAAAAAASNDvZvKoE9hz+P+H5gS4AAAAAAAAAAAAAAAAAAAAAAAAAAAAAAAAicR97Byu+QEBXb2dyoBHAAAAAAAAAAAAAAASNDvZOVQJ/Dm5Pyt+YEsAAAAAAAAAAAAAAAAAAAAAAAAAAAAAAAAInEfeQc5QIGt3s7o6wI0AAAAAAAAAAAAAACSot7N6esCew53k/KgEsAAAAAAAAAAAAAAAAAAAAAAAAAAAAAAAAIvESfUwr95eoCv1u9ndHWBGgAAAAAAAAAAAAAASVFvZvT1gT+HU+qmX7ydQEqAAAAAAAAAAAAAAAAAAAAAAAAAAAAAAAAI3EKfujF4n/JQK7W72d0dYEaAAAAAAAAAAAAAABJUW9m9PWBYsPJ+6yLxv+SASQAAAAAAAAAAAAAAAAAAAAAAAAAAAAAAAAgcf3WlseFKy8VrJn09GjZJEhZrPyzRNiZpxkLlyLdM1T2hawsS5mX6bFvTdV214hVMNYhtWK7G64Wed0kWssb2Pbqvjem3Vc3gXh85G1eou07qWzqHTr/T73s340nv9TH05m1RAAAAAAAAAAAAAAcMS4htWFLG24Xid0cWsjGtY3WfI9duq1OFeHzGq7eptU7ql7p/Tr/UL3s2I1nv9RHmZWrR/dqW+4UpLxRMnZTVaOkjSZmq/LNUzVM14iVu5FymKo+WvNw7mFfqsXNN1PfTmE+TVQAAAAAAAAAAAAAAAAAAAAAAAAAAAAAAA6LhSU1fQz0NZCyamqI3RSxuTY9rkyVF6DFURVGkp2rlVquK6J0mOYeYr7h7FmhfE013tMT7jhyd2TnLmrFZnsZLl3j28D9xelUPGqouYde6nml9LtZOD6mxos3p23Y/dfNPmJ+Y/wBXjDWkjB2I0Yxa1LVWv/gViozNfM/vXe1F8xftZtq586T9uS6h6Yz8OZnbvp808/sd4W19LKiZtyenArVLbnnS5rmrk5qpyoB+AAAAAAAAfrWucuTWqvIgHcyllVM3ZMThVygVPEukfB2HEezu5LpWs/gUao/JfO/vW+1V8xUu5tq386z9Oh6f6Yz82Ynbsp81cfkd5UWx4fxZpoxNDdbpE+3YcgdqtcmaMazPayLPv3u4X7idCIUKaLmbXuq4pdbcycH0zjTZszuuz+6+Z8RHxH+vT1uo6a30EFDRQsgpqeNsUUbU2Ma1MkROg9mmmKY0h81u3a7tc3K51meZd5lrAAAAAAAAAAAAAAAAAAAAAAAAAAAAAAAABxkjZKx0cjGvY5MnNcmaKnEqDTVmJmJ1h8yxjoPwVfnyVFJTyWWqfmquolRI1Xzxr9H2ZFK7gWq+Y4dNgerM/FiKa53x99/3v+6p/DOEqmwYat9nZWJW9xwJF21yaivyVduWa5cmZZtW/boinXs8TqGV/ZlXL+3TdOujJkoqtnfU71TzJn1GxTY0kDM/pwonK3IDrWmgX7GXIoHHuSDid7QHccP3vaA7kg4ne0DklNAn2PaoHZHAzP6EKKvmbmBkx0VW/vad6J50y6wMbEuE6m/YbuFnfWJRd2QLD21qa6sz4ctmftNd2j3KJp8reBlfyZNu/t12zror+DtB2CrC+Oesp5b1Us2o6tVFjRfNGn0fbmVrWBao5nl7mf6tz8qJponZH13/AHv+aPp0UbIo2xxsaxjURGtamSIicCIXXMzMzOsuQYAAAAAAAAAAAAAAAAAAAAAAAAAAAAAAAAAAAAAAAqIu6mYHB0MLu+ijXlagHBaSlXdp4vyoB+dx0n/t4vygfqUlKm5TxflQDm2GFvexRpyNQDmiIm4mQAAAAAAAAAAAAAAAAAAAAAAD/9k=;clipPath=inset(0% 29.67% 2.33% 29.33%);" vertex="1" parent="1">
          <mxGeometry x="269" y="334" width="314.8464163822525" height="750" as="geometry" />
        </mxCell>
        <mxCell id="9CfiIMtapyMQhVFrwfho-10" value="" style="curved=1;endArrow=none;html=1;rounded=0;entryX=0.794;entryY=0.04;entryDx=0;entryDy=0;entryPerimeter=0;exitX=0.222;exitY=0.04;exitDx=0;exitDy=0;exitPerimeter=0;strokeWidth=4;endFill=0;dashed=1;fillColor=#f8cecc;strokeColor=#b85450;" edge="1" parent="1">
          <mxGeometry width="50" height="50" relative="1" as="geometry">
            <mxPoint x="339" y="1084" as="sourcePoint" />
            <mxPoint x="519" y="1084" as="targetPoint" />
            <Array as="points">
              <mxPoint x="269" y="1154" />
              <mxPoint x="109" y="1224" />
              <mxPoint x="189" y="1384" />
              <mxPoint x="409" y="1444" />
              <mxPoint x="629" y="1394" />
              <mxPoint x="739" y="1224" />
              <mxPoint x="589" y="1164" />
            </Array>
          </mxGeometry>
        </mxCell>
        <mxCell id="9CfiIMtapyMQhVFrwfho-12" value="" style="curved=1;endArrow=none;html=1;rounded=0;entryX=0.794;entryY=0.04;entryDx=0;entryDy=0;entryPerimeter=0;exitX=0.222;exitY=0.04;exitDx=0;exitDy=0;exitPerimeter=0;strokeWidth=4;endFill=0;dashed=1;fillColor=#e1d5e7;strokeColor=#9673a6;dashPattern=1 1;" edge="1" parent="1">
          <mxGeometry width="50" height="50" relative="1" as="geometry">
            <mxPoint x="337" y="1084" as="sourcePoint" />
            <mxPoint x="517" y="1084" as="targetPoint" />
            <Array as="points">
              <mxPoint x="267" y="1154" />
              <mxPoint x="310" y="1260" />
              <mxPoint x="540" y="1260" />
              <mxPoint x="587" y="1164" />
            </Array>
          </mxGeometry>
        </mxCell>
        <mxCell id="9CfiIMtapyMQhVFrwfho-13" value="&lt;font style=&quot;font-size: 38px;&quot;&gt;Minimal&lt;/font&gt;&lt;font style=&quot;background-color: initial; font-size: 38px;&quot;&gt;&amp;nbsp;&lt;/font&gt;&lt;span style=&quot;background-color: initial; font-size: 38px;&quot;&gt;set&lt;/span&gt;" style="text;html=1;align=center;verticalAlign=middle;resizable=0;points=[];autosize=1;strokeColor=none;fillColor=none;" vertex="1" parent="1">
          <mxGeometry x="315.42" y="1138" width="220" height="60" as="geometry" />
        </mxCell>
        <mxCell id="9CfiIMtapyMQhVFrwfho-14" value="&lt;div style=&quot;font-size: 38px;&quot;&gt;&lt;font style=&quot;font-size: 38px;&quot;&gt;Maximal&lt;/font&gt;&lt;span style=&quot;background-color: initial;&quot;&gt;&amp;nbsp;set&lt;/span&gt;&lt;/div&gt;" style="text;html=1;align=center;verticalAlign=middle;resizable=0;points=[];autosize=1;strokeColor=none;fillColor=none;fontColor=#FF0000;" vertex="1" parent="1">
          <mxGeometry x="311.41999999999996" y="1288" width="230" height="60" as="geometry" />
        </mxCell>
      </root>
    </mxGraphModel>
  </diagram>
</mxfile>
